<svg width="21" height="26" viewBox="0 0 21 26" fill="none" xmlns="http://www.w3.org/2000/svg">
<g id="window">
<path id="Shape" fill-rule="evenodd" clip-rule="evenodd" d="M1.53125 8.91429C1.53125 3.99907 5.53032 0 10.4455 0C15.3608 0 19.3598 3.99907 19.3598 8.91429V25.2571C19.3598 25.531 19.1379 25.7524 18.8645 25.7524H2.02647C1.75312 25.7524 1.53125 25.531 1.53125 25.2571V8.91429ZM2.52175 8.91429V24.7619H18.3693V8.91429C18.3693 4.5453 14.815 0.990496 10.4455 0.990496C6.07608 0.990496 2.52175 4.5453 2.52175 8.91429Z" fill="#00A8FF"/>
<path id="Shape_2" fill-rule="evenodd" clip-rule="evenodd" d="M3.51367 8.91431C3.51367 5.09103 6.62381 1.98096 10.447 1.98096C14.2702 1.98096 17.3804 5.09109 17.3803 8.91431V25.2572C17.3803 25.531 17.1584 25.7524 16.8851 25.7524H4.00889C3.73554 25.7524 3.51367 25.531 3.51367 25.2572V8.91431ZM4.50417 8.91431V24.7619H16.3899V8.91431C16.3899 5.63732 13.724 2.97145 10.447 2.97145C7.17004 2.97145 4.50417 5.63732 4.50417 8.91431Z" fill="#00A8FF"/>
<path id="Shape_3" d="M20.7999 26H0V24.5143H20.8V26H20.7999Z" fill="#00A8FF"/>
<path id="Shape_4" fill-rule="evenodd" clip-rule="evenodd" d="M4.00889 8.41907H10.447C10.7203 8.41907 10.9422 8.64042 10.9422 8.91429V25.2571C10.9422 25.531 10.7203 25.7524 10.447 25.7524H4.00889C3.73554 25.7524 3.51367 25.531 3.51367 25.2571V8.91429C3.51367 8.64042 3.73554 8.41907 4.00889 8.41907ZM4.50411 24.7619H9.95175V9.4095H4.50411V24.7619Z" fill="#00A8FF"/>
<path id="Shape_5" fill-rule="evenodd" clip-rule="evenodd" d="M4.00889 8.41907H10.447C10.7203 8.41907 10.9422 8.64042 10.9422 8.91429V16.8381C10.9422 17.1119 10.7203 17.3333 10.447 17.3333H4.00889C3.73554 17.3333 3.51367 17.1119 3.51367 16.8381V8.91429C3.51367 8.64042 3.73554 8.41907 4.00889 8.41907ZM4.50411 16.3429H9.95175V9.4095H4.50411V16.3429Z" fill="#00A8FF"/>
<path id="Shape_6" fill-rule="evenodd" clip-rule="evenodd" d="M4.00889 16.3429H10.447C10.7203 16.3429 10.9422 16.5642 10.9422 16.8381V25.2572C10.9422 25.5311 10.7203 25.7524 10.447 25.7524H4.00889C3.73554 25.7524 3.51367 25.5311 3.51367 25.2572V16.8381C3.51367 16.5642 3.73554 16.3429 4.00889 16.3429ZM4.50411 24.762H9.95175V17.3334H4.50411V24.762Z" fill="#00A8FF"/>
<path id="Shape_7" fill-rule="evenodd" clip-rule="evenodd" d="M10.4464 8.41907H16.8845C17.1579 8.41907 17.3797 8.64042 17.3797 8.91429V25.2571C17.3797 25.531 17.1578 25.7524 16.8845 25.7524H10.4464C10.173 25.7524 9.95117 25.531 9.95117 25.2571V8.91429C9.95117 8.64042 10.173 8.41907 10.4464 8.41907ZM10.9416 24.7619H16.3892V9.4095H10.9416V24.7619Z" fill="#00A8FF"/>
<path id="Shape_8" fill-rule="evenodd" clip-rule="evenodd" d="M10.4464 8.41907H16.8845C17.1579 8.41907 17.3797 8.64042 17.3797 8.91429V16.8381C17.3797 17.1119 17.1578 17.3333 16.8845 17.3333H10.4464C10.173 17.3333 9.95117 17.1119 9.95117 16.8381V8.91429C9.95117 8.64042 10.173 8.41907 10.4464 8.41907ZM10.9416 16.3429H16.3892V9.4095H10.9416V16.3429Z" fill="#00A8FF"/>
<path id="Shape_9" fill-rule="evenodd" clip-rule="evenodd" d="M10.4464 16.3429H16.8845C17.1579 16.3429 17.3797 16.5642 17.3797 16.8381V25.2572C17.3797 25.5311 17.1578 25.7524 16.8845 25.7524H10.4464C10.173 25.7524 9.95117 25.5311 9.95117 25.2572V16.8381C9.95117 16.5642 10.173 16.3429 10.4464 16.3429ZM10.9416 24.762H16.3892V17.3334H10.9416V24.762Z" fill="#00A8FF"/>
<path id="Path" d="M10.4464 1.98096C10.173 1.98096 9.95117 2.20231 9.95117 2.47618V8.91431C9.95117 9.18818 10.173 9.40953 10.4464 9.40953C10.7197 9.40953 10.9416 9.18818 10.9416 8.91431V2.47623C10.9416 2.20236 10.7197 1.98096 10.4464 1.98096Z" fill="#00A8FF"/>
</g>
</svg>
