<svg width="120" height="40" viewBox="0 0 120 40" fill="none" xmlns="http://www.w3.org/2000/svg">
<g id="Group 31">
<path id="Fill 6" fill-rule="evenodd" clip-rule="evenodd" d="M12.3672 21.1509C12.0743 22.2429 12.7225 23.3655 13.8146 23.6586C14.9073 23.951 16.0299 23.3027 16.3223 22.2106C16.6154 21.1179 15.967 19.9953 14.875 19.7029C13.7824 19.41 12.6597 20.0581 12.3672 21.1509ZM7.36447 13.5482C11.8918 7.08244 19.3517 4.49593 24.0274 7.76985C28.7033 11.0439 28.8235 18.939 24.2963 25.4041C21.8341 28.9214 18.5025 31.2905 15.2244 32.1933L14.6328 28.0072C14.62 27.8075 14.5929 27.6142 14.5509 27.4277L14.5412 27.3844C14.3804 26.7086 14.0265 26.134 13.4819 25.7523C12.6575 25.175 11.5671 25.1599 10.5135 25.6038C8.85552 26.221 7.30699 26.2042 6.16645 25.4057C3.85799 23.7898 3.98742 19.5054 6.27532 15.2925C6.60233 14.7029 6.96494 14.1192 7.36447 13.5482ZM14.5522 27.4277L14.5459 27.3839L14.5522 27.4277Z" fill="#255151"/>
<path id="Fill 7" fill-rule="evenodd" clip-rule="evenodd" d="M5.31135 8.97381C5.91352 5.55662 9.17143 3.27618 12.5888 3.87948C16.0061 4.48347 18.2882 7.74254 17.686 11.1592C17.0843 14.5765 13.8255 16.8568 10.4086 16.2535C6.99077 15.6497 4.70874 12.3906 5.31135 8.97381Z" fill="#54CF9A"/>
<path id="Fill 8" fill-rule="evenodd" clip-rule="evenodd" d="M11.4013 21.4983C11.1087 22.591 11.7571 23.7136 12.8491 24.006C13.9411 24.2991 15.0644 23.6509 15.3569 22.5582C15.6493 21.4661 15.0011 20.3435 13.909 20.0505C12.8163 19.758 11.6937 20.4062 11.4013 21.4983ZM6.39885 13.8956C9.21387 9.87509 13.1635 7.35465 16.8723 6.8107C19.1275 6.48009 21.2938 6.88007 23.0618 8.11803C27.737 11.3913 27.8575 19.2866 23.3301 25.7517C20.8679 29.2691 17.5364 31.6387 14.2584 32.5408L13.6665 28.3549C13.6537 28.1558 13.6269 27.9617 13.5847 27.7757L13.575 27.7326C13.4149 27.0567 13.0602 26.4816 12.5157 26.0999C11.6912 25.5223 10.601 25.5075 9.54744 25.9519C7.88939 26.5691 6.34074 26.5524 5.2009 25.7539C2.89244 24.1374 3.02136 19.8535 5.30908 15.6401C5.63606 15.0512 5.99874 14.4668 6.39885 13.8956ZM13.5861 27.7756L13.5803 27.732L13.5861 27.7756Z" fill="#0F93D3"/>
<path id="Fill 9" fill-rule="evenodd" clip-rule="evenodd" d="M16.8716 6.81055C17.6347 8.06825 17.9622 9.59707 17.687 11.1593C17.0854 14.5766 13.8265 16.857 10.4096 16.2535C8.76371 15.9629 7.38114 15.0557 6.45703 13.8124C9.26813 9.84055 13.1884 7.35088 16.8716 6.81055Z" fill="#255151"/>
<path id="Fill 10" fill-rule="evenodd" clip-rule="evenodd" d="M18.4246 2.65342C36.3311 1.36619 34.9903 29.6887 16.9475 35.566C15.3958 36.1775 13.708 36.5585 12.1219 36.9949C11.5906 37.1411 11.0971 36.817 11.0206 36.2713L10.0638 29.1861C9.27282 29.471 8.71896 29.5787 7.41215 29.7302C6.6027 29.824 5.42543 29.6835 4.89687 29.5546C-0.823222 28.2011 -1.19562 19.8109 2.04208 13.8456C2.13134 13.6844 2.22449 13.522 2.31944 13.3591C2.11352 12.8939 1.94889 12.4006 1.83072 11.8866C1.54169 10.9182 1.51185 9.55717 1.7444 8.24009C3.17396 0.132976 12.8847 -2.51053 18.4246 2.65342ZM17.4754 4.17731C12.974 -0.383984 4.67639 1.71167 3.47206 8.5446C3.26943 9.69657 3.3327 10.81 3.52676 11.4357C3.9747 13.4248 4.62859 12.8035 3.58145 14.6861C-0.712567 22.5978 2.21653 30.5977 10.4829 27.5206C11.2474 27.2363 11.5624 27.9283 11.6947 28.4826L12.6205 35.0461C13.8703 34.7186 15.1633 34.387 16.3533 33.9155C32.589 28.6507 34.3467 2.88987 18.1828 4.43399C18.1207 4.43988 17.946 4.47011 17.7964 4.4149C17.639 4.3568 17.517 4.2194 17.4754 4.17731Z" fill="#0F93D3"/>
<path id="Fill 11" fill-rule="evenodd" clip-rule="evenodd" d="M119.972 20.9462C119.972 19.3632 119.378 18.176 116.806 17.0877C115.817 16.593 115.124 16.0984 115.124 15.2079C115.124 14.4164 115.619 13.8228 116.608 13.8228C117.499 13.8228 118.29 14.2185 118.686 14.5154L119.675 12.2398C118.587 11.6461 117.4 11.3494 115.817 11.3494C113.046 11.3494 111.266 13.1302 111.266 15.4058C111.266 16.7909 111.859 18.176 114.333 19.1654C115.52 19.6601 116.015 20.1548 116.015 21.0452C116.015 21.9356 115.322 22.5293 114.333 22.5293C113.343 22.5293 112.453 22.1335 111.958 21.7378L110.969 24.2112C111.76 24.8048 113.244 25.2005 114.926 25.2005C118.092 25.2005 119.972 23.3207 119.972 20.9462ZM101.962 25.2005C104.238 25.2005 105.722 24.8048 106.81 24.2112L105.92 21.8367C105.227 22.2324 104.04 22.5293 102.457 22.5293C102.061 22.5293 101.665 22.5293 101.27 22.4303C100.082 22.1335 99.3898 21.1441 99.1919 19.6601L107.206 18.4728C107.404 13.9217 105.425 11.3494 101.566 11.3494C97.3733 11.3494 95.5312 14.3762 95.5312 18.2749C95.5312 22.3734 97.7316 25.2005 101.962 25.2005ZM98.9959 17.7803C98.869 16.0052 99.2082 13.6249 101.469 13.6249C102.854 13.6249 103.646 14.6142 103.646 17.0877L98.9959 17.7803ZM92.6639 11.3494C89.0033 11.1515 86.9256 11.5472 85.4415 12.3387V25.0027H89.3001V14.0207C89.9927 13.7238 90.9821 13.7238 91.8725 14.1196L92.6639 11.3494ZM68.7227 18.3739C68.7227 22.5923 70.9826 25.2005 75.2525 25.2005C77.6271 25.2005 79.21 24.9037 80.3973 24.2112V5.41309H76.5387V11.6461C71.7289 10.6848 68.7227 13.3931 68.7227 18.3739ZM75.4489 13.6249C75.8446 13.6249 76.1507 13.6249 76.5371 13.7238V22.5293C76.2403 22.7271 75.8446 22.7271 75.3499 22.7271C72.9065 22.7271 72.4807 20.145 72.4807 18.176C72.4807 16.1213 72.9439 13.6249 75.4489 13.6249ZM64.0692 25.0027V15.6037C64.0692 13.1302 62.5852 11.3494 58.3308 11.3494C55.9563 11.3494 54.0765 11.7451 52.6914 12.3387V25.0027H56.6489V14.0207C57.0447 13.8228 57.4404 13.7238 58.2319 13.7238C59.8149 13.7238 60.2107 14.6142 60.2107 15.6037V25.0027H64.0692ZM40.2271 20.8473C40.2271 19.3632 40.9197 18.6707 42.1069 18.2749C42.7006 18.0771 43.2941 17.9781 44.0857 17.9781V22.8261C43.6899 23.0239 43.1952 23.1229 42.6016 23.1229C41.1771 23.1229 40.2271 22.315 40.2271 20.8473ZM42.1069 11.3494C39.9303 11.3494 38.2483 11.943 37.3579 12.3387L38.2483 14.5154C39.0398 14.1196 40.425 13.7238 41.7111 13.7238C42.9206 13.7238 44.0857 14.0549 44.0857 15.5047V16.0983C43.3931 16.1972 42.7006 16.2962 42.1069 16.3951C38.9409 16.8898 36.5664 18.0771 36.5664 20.9462C36.5664 23.7165 38.4463 25.1016 42.1069 25.2005C42.2058 25.2005 42.3048 25.2005 42.4037 25.2005C44.7782 25.2005 46.5591 24.8048 47.6474 24.2112V16.1972C47.6474 12.5366 45.4708 11.3494 42.4037 11.3494C42.3048 11.3494 42.2058 11.3494 42.1069 11.3494Z" fill="#255151"/>
<path id="Fill 12" fill-rule="evenodd" clip-rule="evenodd" d="M59.1638 37.8363C59.1638 38.5324 58.9569 39.0623 58.543 39.426C58.1543 39.7647 57.6213 39.9339 56.944 39.9339C56.135 39.9339 55.5048 39.8085 55.0533 39.5577L55.4296 38.6076C55.7995 38.8083 56.2166 38.9087 56.6806 38.9087C57.383 38.9087 57.7341 38.592 57.7341 37.9586V37.6764C57.5397 37.783 57.245 37.8363 56.8499 37.8363C56.2353 37.8363 55.7337 37.6153 55.3449 37.1732C54.9561 36.7311 54.7617 36.1369 54.7617 35.3907C54.7617 34.5253 54.9828 33.8496 55.4248 33.3636C55.867 32.8776 56.5144 32.6346 57.3673 32.6346C58.1512 32.6346 58.75 32.76 59.1638 33.0109V37.8363ZM57.7341 36.8769V33.5658C57.6213 33.5094 57.4692 33.4812 57.2764 33.4812C56.5724 33.4812 56.2197 34.0895 56.2197 35.306C56.2197 36.4348 56.563 36.9992 57.2481 36.9992C57.4409 36.9992 57.604 36.9584 57.7341 36.8769ZM61.7506 37.7987H60.2926V30.4053H61.7506V37.7987ZM66.8771 37.5165C66.4067 37.7674 65.7451 37.8928 64.8923 37.8928C63.4124 37.8928 62.6724 37.3597 62.6724 36.2937C62.6724 35.6917 62.9546 35.2402 63.519 34.9392C63.9642 34.7009 64.6258 34.541 65.5037 34.4595V34.2243C65.5037 33.7728 65.2059 33.5471 64.6101 33.5471C64.1837 33.5471 63.7447 33.6505 63.2932 33.8574L62.9734 33.0203C63.5817 32.7632 64.2182 32.6346 64.8829 32.6346C66.2123 32.6346 66.8771 33.2523 66.8771 34.4877V37.5165ZM65.5049 36.9804V35.1367C65.0158 35.1869 64.6614 35.2809 64.4419 35.4188C64.1786 35.5882 64.0469 35.861 64.0469 36.2372C64.0469 36.8016 64.3541 37.0838 64.9687 37.0838C65.1882 37.0838 65.3669 37.0493 65.5049 36.9804ZM71.102 36.2843C71.102 36.7421 70.9327 37.1183 70.594 37.413C70.2303 37.7266 69.7569 37.8834 69.1737 37.8834C68.5529 37.8834 68.0574 37.7611 67.6875 37.5165L68.0638 36.5853C68.3083 36.786 68.6093 36.8863 68.9668 36.8863C69.1549 36.8863 69.3069 36.8346 69.4229 36.7311C69.539 36.6276 69.597 36.4928 69.597 36.3298C69.597 36.0225 69.3806 35.7826 68.9479 35.6133C68.1892 35.3123 67.8098 34.8404 67.8098 34.1992C67.8098 33.7603 67.9665 33.3887 68.2801 33.0877C68.5936 32.7851 69.0012 32.6346 69.5029 32.6346C70.0799 32.6346 70.5658 32.7569 70.9609 33.0015L70.6034 33.8387C70.3902 33.663 70.1332 33.5753 69.8322 33.5753C69.4434 33.5753 69.249 33.7508 69.249 34.102C69.249 34.3842 69.4653 34.6162 69.898 34.7981C70.3558 34.9925 70.6787 35.2183 70.8669 35.4753C71.0236 35.6885 71.102 35.9582 71.102 36.2843ZM75.117 36.2843C75.117 36.7421 74.9477 37.1183 74.609 37.413C74.2453 37.7266 73.7719 37.8834 73.1887 37.8834C72.5679 37.8834 72.0725 37.7611 71.7025 37.5165L72.0788 36.5853C72.3233 36.7859 72.6243 36.8863 72.9818 36.8863C73.1699 36.8863 73.3219 36.8346 73.438 36.7311C73.554 36.6276 73.612 36.4928 73.612 36.3298C73.612 36.0225 73.3956 35.7826 72.9629 35.6133C72.2041 35.3123 71.8248 34.8404 71.8248 34.1992C71.8248 33.7603 71.9815 33.3887 72.2951 33.0877C72.6086 32.7851 73.0162 32.6346 73.5179 32.6346C74.0949 32.6346 74.5808 32.7569 74.9759 33.0015L74.6184 33.8387C74.4053 33.663 74.1482 33.5753 73.8471 33.5753C73.4584 33.5753 73.264 33.7508 73.264 34.102C73.264 34.3842 73.4803 34.6162 73.913 34.7981C74.3708 34.9925 74.6937 35.2183 74.8818 35.4753C75.0386 35.6885 75.117 35.9582 75.117 36.2843ZM77.5532 31.2707C77.5532 31.4651 77.478 31.6281 77.3275 31.7598C77.177 31.8915 76.992 31.9574 76.7725 31.9574C76.553 31.9574 76.3681 31.8915 76.2176 31.7598C76.067 31.6281 75.9918 31.4651 75.9918 31.2707C75.9918 31.0826 76.0686 30.9211 76.2222 30.7863C76.3759 30.6514 76.5593 30.584 76.7725 30.584C76.9857 30.584 77.1691 30.6514 77.3228 30.7863C77.4764 30.9211 77.5532 31.0826 77.5532 31.2707ZM77.4968 37.7987H76.0388V32.7287H77.4968V37.7987ZM85.8026 37.7987H84.3446V34.2431C84.3446 33.7854 84.0969 33.5564 83.6015 33.5564C83.3334 33.5564 83.1171 33.638 82.9525 33.801V37.7987H81.4945V34.2243C81.4945 33.779 81.2295 33.5564 80.6997 33.5564C80.4723 33.5564 80.2732 33.5878 80.1023 33.6505V37.7987H78.6444V33.0109C79.2025 32.76 79.886 32.6346 80.6949 32.6346C81.4161 32.6346 81.9522 32.804 82.3034 33.1425C82.6985 32.804 83.2566 32.6346 83.9778 32.6346C84.561 32.6346 85.0156 32.7914 85.3417 33.1049C85.649 33.3934 85.8026 33.7728 85.8026 34.2431V37.7987ZM91.3444 35.2261C91.3444 36.0272 91.139 36.6653 90.7267 37.1418C90.3144 37.6169 89.7751 37.8552 89.1088 37.8552C88.8 37.8552 88.5539 37.8301 88.372 37.7799V39.8211H86.9141V33.0109C87.4157 32.76 88.0616 32.6346 88.8517 32.6346C89.6231 32.6346 90.2282 32.8541 90.6672 33.2915C91.1187 33.7493 91.3444 34.3936 91.3444 35.2261ZM89.8849 35.2449C89.8849 34.0816 89.5306 33.5 88.822 33.5C88.6527 33.5 88.5022 33.5251 88.3705 33.5753V36.9239C88.4834 36.9678 88.6119 36.9898 88.7562 36.9898C89.5087 36.9898 89.8849 36.4081 89.8849 35.2449ZM96.5241 35.3499L93.4859 35.7826C93.5862 36.5241 93.9938 36.8957 94.7087 36.8957C95.2355 36.8957 95.6744 36.8016 96.0256 36.6135L96.3548 37.526C95.8657 37.7705 95.2606 37.8928 94.5394 37.8928C93.7681 37.8928 93.1676 37.6561 92.7381 37.1826C92.3085 36.7091 92.0938 36.0648 92.0938 35.2496C92.0938 34.4469 92.2944 33.8104 92.6957 33.3401C93.0971 32.8698 93.6583 32.6346 94.3795 32.6346C95.1069 32.6346 95.654 32.8698 96.0209 33.3416C96.3878 33.8136 96.5555 34.483 96.5241 35.3499ZM95.1637 34.798C95.1637 33.9326 94.8846 33.5 94.3265 33.5C94.0192 33.5 93.7841 33.6285 93.6211 33.8856C93.4455 34.1615 93.3702 34.5535 93.3953 35.0614L95.1637 34.798ZM101.718 37.7987H100.1L99.2819 36.1714L98.4542 37.7987H96.9679L98.5576 35.1837L97.1279 32.7287H98.6705L99.4042 34.1961H99.423L100.204 32.7287H101.568L100.11 35.0803L101.718 37.7987Z" fill="#0F93D3"/>
<path id="Fill 20" fill-rule="evenodd" clip-rule="evenodd" d="M12.3672 21.1509C12.0743 22.2429 12.7225 23.3655 13.8146 23.6586C14.9073 23.951 16.0299 23.3027 16.3223 22.2106C16.6154 21.1179 15.967 19.9953 14.875 19.7029C13.7824 19.41 12.6597 20.0581 12.3672 21.1509ZM7.36447 13.5482C11.8918 7.08244 19.3517 4.49593 24.0274 7.76985C28.7033 11.0439 28.8235 18.939 24.2963 25.4041C21.8341 28.9214 18.5025 31.2905 15.2244 32.1933L14.6328 28.0072C14.62 27.8075 14.5929 27.6142 14.5509 27.4277L14.5412 27.3844C14.3804 26.7086 14.0265 26.134 13.4819 25.7523C12.6575 25.175 11.5671 25.1599 10.5135 25.6038C8.85552 26.221 7.30699 26.2042 6.16645 25.4057C3.85799 23.7898 3.98742 19.5054 6.27532 15.2925C6.60233 14.7029 6.96494 14.1192 7.36447 13.5482ZM14.5522 27.4277L14.5459 27.3839L14.5522 27.4277Z" fill="#255151"/>
<path id="Fill 21" fill-rule="evenodd" clip-rule="evenodd" d="M5.31135 8.97381C5.91352 5.55662 9.17143 3.27618 12.5888 3.87948C16.0061 4.48347 18.2882 7.74254 17.686 11.1592C17.0843 14.5765 13.8255 16.8568 10.4086 16.2535C6.99077 15.6497 4.70874 12.3906 5.31135 8.97381Z" fill="#54CF9A"/>
<path id="Fill 22" fill-rule="evenodd" clip-rule="evenodd" d="M11.4013 21.4983C11.1087 22.591 11.7571 23.7136 12.8491 24.006C13.9411 24.2991 15.0644 23.6509 15.3569 22.5582C15.6493 21.4661 15.0011 20.3435 13.909 20.0505C12.8163 19.758 11.6937 20.4062 11.4013 21.4983ZM6.39885 13.8956C9.21387 9.87509 13.1635 7.35465 16.8723 6.8107C19.1275 6.48009 21.2938 6.88007 23.0618 8.11803C27.737 11.3913 27.8575 19.2866 23.3301 25.7517C20.8679 29.2691 17.5364 31.6387 14.2584 32.5408L13.6665 28.3549C13.6537 28.1558 13.6269 27.9617 13.5847 27.7757L13.575 27.7326C13.4149 27.0567 13.0602 26.4816 12.5157 26.0999C11.6912 25.5223 10.601 25.5075 9.54744 25.9519C7.88939 26.5691 6.34074 26.5524 5.2009 25.7539C2.89244 24.1374 3.02136 19.8535 5.30908 15.6401C5.63606 15.0512 5.99874 14.4668 6.39885 13.8956ZM13.5861 27.7756L13.5803 27.732L13.5861 27.7756Z" fill="#0F93D3"/>
<path id="Fill 23" fill-rule="evenodd" clip-rule="evenodd" d="M16.8716 6.81055C17.6347 8.06825 17.9622 9.59707 17.687 11.1593C17.0854 14.5766 13.8265 16.857 10.4096 16.2535C8.76371 15.9629 7.38114 15.0557 6.45703 13.8124C9.26813 9.84055 13.1884 7.35088 16.8716 6.81055Z" fill="#255151"/>
<path id="Fill 24" fill-rule="evenodd" clip-rule="evenodd" d="M18.4246 2.65342C36.3311 1.36619 34.9903 29.6887 16.9475 35.566C15.3958 36.1775 13.708 36.5585 12.1219 36.9949C11.5906 37.1411 11.0971 36.817 11.0206 36.2713L10.0638 29.1861C9.27282 29.471 8.71896 29.5787 7.41215 29.7302C6.6027 29.824 5.42543 29.6835 4.89687 29.5546C-0.823222 28.2011 -1.19562 19.8109 2.04208 13.8456C2.13134 13.6844 2.22449 13.522 2.31944 13.3591C2.11352 12.8939 1.94889 12.4006 1.83072 11.8866C1.54169 10.9182 1.51185 9.55717 1.7444 8.24009C3.17396 0.132976 12.8847 -2.51053 18.4246 2.65342ZM17.4754 4.17731C12.974 -0.383984 4.67639 1.71167 3.47206 8.5446C3.26943 9.69657 3.3327 10.81 3.52676 11.4357C3.9747 13.4248 4.62859 12.8035 3.58145 14.6861C-0.712567 22.5978 2.21653 30.5977 10.4829 27.5206C11.2474 27.2363 11.5624 27.9283 11.6947 28.4826L12.6205 35.0461C13.8703 34.7186 15.1633 34.387 16.3533 33.9155C32.589 28.6507 34.3467 2.88987 18.1828 4.43399C18.1207 4.43988 17.946 4.47011 17.7964 4.4149C17.639 4.3568 17.517 4.2194 17.4754 4.17731Z" fill="#0F93D3"/>
<path id="Fill 25" fill-rule="evenodd" clip-rule="evenodd" d="M119.972 20.9462C119.972 19.3632 119.378 18.176 116.806 17.0877C115.817 16.593 115.124 16.0984 115.124 15.2079C115.124 14.4164 115.619 13.8228 116.608 13.8228C117.499 13.8228 118.29 14.2185 118.686 14.5154L119.675 12.2398C118.587 11.6461 117.4 11.3494 115.817 11.3494C113.046 11.3494 111.266 13.1302 111.266 15.4058C111.266 16.7909 111.859 18.176 114.333 19.1654C115.52 19.6601 116.015 20.1548 116.015 21.0452C116.015 21.9356 115.322 22.5293 114.333 22.5293C113.343 22.5293 112.453 22.1335 111.958 21.7378L110.969 24.2112C111.76 24.8048 113.244 25.2005 114.926 25.2005C118.092 25.2005 119.972 23.3207 119.972 20.9462ZM101.962 25.2005C104.238 25.2005 105.722 24.8048 106.81 24.2112L105.92 21.8367C105.227 22.2324 104.04 22.5293 102.457 22.5293C102.061 22.5293 101.665 22.5293 101.27 22.4303C100.082 22.1335 99.3898 21.1441 99.1919 19.6601L107.206 18.4728C107.404 13.9217 105.425 11.3494 101.566 11.3494C97.3733 11.3494 95.5312 14.3762 95.5312 18.2749C95.5312 22.3734 97.7316 25.2005 101.962 25.2005ZM98.9959 17.7803C98.869 16.0052 99.2082 13.6249 101.469 13.6249C102.854 13.6249 103.646 14.6142 103.646 17.0877L98.9959 17.7803ZM92.6639 11.3494C89.0033 11.1515 86.9256 11.5472 85.4415 12.3387V25.0027H89.3001V14.0207C89.9927 13.7238 90.9821 13.7238 91.8725 14.1196L92.6639 11.3494ZM68.7227 18.3739C68.7227 22.5923 70.9826 25.2005 75.2525 25.2005C77.6271 25.2005 79.21 24.9037 80.3973 24.2112V5.41309H76.5387V11.6461C71.7289 10.6848 68.7227 13.3931 68.7227 18.3739ZM75.4489 13.6249C75.8446 13.6249 76.1507 13.6249 76.5371 13.7238V22.5293C76.2403 22.7271 75.8446 22.7271 75.3499 22.7271C72.9065 22.7271 72.4807 20.145 72.4807 18.176C72.4807 16.1213 72.9439 13.6249 75.4489 13.6249ZM64.0692 25.0027V15.6037C64.0692 13.1302 62.5852 11.3494 58.3308 11.3494C55.9563 11.3494 54.0765 11.7451 52.6914 12.3387V25.0027H56.6489V14.0207C57.0447 13.8228 57.4404 13.7238 58.2319 13.7238C59.8149 13.7238 60.2107 14.6142 60.2107 15.6037V25.0027H64.0692ZM40.2271 20.8473C40.2271 19.3632 40.9197 18.6707 42.1069 18.2749C42.7006 18.0771 43.2941 17.9781 44.0857 17.9781V22.8261C43.6899 23.0239 43.1952 23.1229 42.6016 23.1229C41.1771 23.1229 40.2271 22.315 40.2271 20.8473ZM42.1069 11.3494C39.9303 11.3494 38.2483 11.943 37.3579 12.3387L38.2483 14.5154C39.0398 14.1196 40.425 13.7238 41.7111 13.7238C42.9206 13.7238 44.0857 14.0549 44.0857 15.5047V16.0983C43.3931 16.1972 42.7006 16.2962 42.1069 16.3951C38.9409 16.8898 36.5664 18.0771 36.5664 20.9462C36.5664 23.7165 38.4463 25.1016 42.1069 25.2005C42.2058 25.2005 42.3048 25.2005 42.4037 25.2005C44.7782 25.2005 46.5591 24.8048 47.6474 24.2112V16.1972C47.6474 12.5366 45.4708 11.3494 42.4037 11.3494C42.3048 11.3494 42.2058 11.3494 42.1069 11.3494Z" fill="#255151"/>
<path id="Fill 26" fill-rule="evenodd" clip-rule="evenodd" d="M59.1638 37.8363C59.1638 38.5324 58.9569 39.0623 58.543 39.426C58.1543 39.7647 57.6213 39.9339 56.944 39.9339C56.135 39.9339 55.5048 39.8085 55.0533 39.5577L55.4296 38.6076C55.7995 38.8083 56.2166 38.9087 56.6806 38.9087C57.383 38.9087 57.7341 38.592 57.7341 37.9586V37.6764C57.5397 37.783 57.245 37.8363 56.8499 37.8363C56.2353 37.8363 55.7337 37.6153 55.3449 37.1732C54.9561 36.7311 54.7617 36.1369 54.7617 35.3907C54.7617 34.5253 54.9828 33.8496 55.4248 33.3636C55.867 32.8776 56.5144 32.6346 57.3673 32.6346C58.1512 32.6346 58.75 32.76 59.1638 33.0109V37.8363ZM57.7341 36.8769V33.5658C57.6213 33.5094 57.4692 33.4812 57.2764 33.4812C56.5724 33.4812 56.2197 34.0895 56.2197 35.306C56.2197 36.4348 56.563 36.9992 57.2481 36.9992C57.4409 36.9992 57.604 36.9584 57.7341 36.8769ZM61.7506 37.7987H60.2926V30.4053H61.7506V37.7987ZM66.8771 37.5165C66.4067 37.7674 65.7451 37.8928 64.8923 37.8928C63.4124 37.8928 62.6724 37.3597 62.6724 36.2937C62.6724 35.6917 62.9546 35.2402 63.519 34.9392C63.9642 34.7009 64.6258 34.541 65.5037 34.4595V34.2243C65.5037 33.7728 65.2059 33.5471 64.6101 33.5471C64.1837 33.5471 63.7447 33.6505 63.2932 33.8574L62.9734 33.0203C63.5817 32.7632 64.2182 32.6346 64.8829 32.6346C66.2123 32.6346 66.8771 33.2523 66.8771 34.4877V37.5165ZM65.5049 36.9804V35.1367C65.0158 35.1869 64.6614 35.2809 64.4419 35.4188C64.1786 35.5882 64.0469 35.861 64.0469 36.2372C64.0469 36.8016 64.3541 37.0838 64.9687 37.0838C65.1882 37.0838 65.3669 37.0493 65.5049 36.9804ZM71.102 36.2843C71.102 36.7421 70.9327 37.1183 70.594 37.413C70.2303 37.7266 69.7569 37.8834 69.1737 37.8834C68.5529 37.8834 68.0574 37.7611 67.6875 37.5165L68.0638 36.5853C68.3083 36.786 68.6093 36.8863 68.9668 36.8863C69.1549 36.8863 69.3069 36.8346 69.4229 36.7311C69.539 36.6276 69.597 36.4928 69.597 36.3298C69.597 36.0225 69.3806 35.7826 68.9479 35.6133C68.1892 35.3123 67.8098 34.8404 67.8098 34.1992C67.8098 33.7603 67.9665 33.3887 68.2801 33.0877C68.5936 32.7851 69.0012 32.6346 69.5029 32.6346C70.0799 32.6346 70.5658 32.7569 70.9609 33.0015L70.6034 33.8387C70.3902 33.663 70.1332 33.5753 69.8322 33.5753C69.4434 33.5753 69.249 33.7508 69.249 34.102C69.249 34.3842 69.4653 34.6162 69.898 34.7981C70.3558 34.9925 70.6787 35.2183 70.8669 35.4753C71.0236 35.6885 71.102 35.9582 71.102 36.2843ZM75.117 36.2843C75.117 36.7421 74.9477 37.1183 74.609 37.413C74.2453 37.7266 73.7719 37.8834 73.1887 37.8834C72.5679 37.8834 72.0725 37.7611 71.7025 37.5165L72.0788 36.5853C72.3233 36.7859 72.6243 36.8863 72.9818 36.8863C73.1699 36.8863 73.3219 36.8346 73.438 36.7311C73.554 36.6276 73.612 36.4928 73.612 36.3298C73.612 36.0225 73.3956 35.7826 72.9629 35.6133C72.2041 35.3123 71.8248 34.8404 71.8248 34.1992C71.8248 33.7603 71.9815 33.3887 72.2951 33.0877C72.6086 32.7851 73.0162 32.6346 73.5179 32.6346C74.0949 32.6346 74.5808 32.7569 74.9759 33.0015L74.6184 33.8387C74.4053 33.663 74.1482 33.5753 73.8471 33.5753C73.4584 33.5753 73.264 33.7508 73.264 34.102C73.264 34.3842 73.4803 34.6162 73.913 34.7981C74.3708 34.9925 74.6937 35.2183 74.8818 35.4753C75.0386 35.6885 75.117 35.9582 75.117 36.2843ZM77.5532 31.2707C77.5532 31.4651 77.478 31.6281 77.3275 31.7598C77.177 31.8915 76.992 31.9574 76.7725 31.9574C76.553 31.9574 76.3681 31.8915 76.2176 31.7598C76.067 31.6281 75.9918 31.4651 75.9918 31.2707C75.9918 31.0826 76.0686 30.9211 76.2222 30.7863C76.3759 30.6514 76.5593 30.584 76.7725 30.584C76.9857 30.584 77.1691 30.6514 77.3228 30.7863C77.4764 30.9211 77.5532 31.0826 77.5532 31.2707ZM77.4968 37.7987H76.0388V32.7287H77.4968V37.7987ZM85.8026 37.7987H84.3446V34.2431C84.3446 33.7854 84.0969 33.5564 83.6015 33.5564C83.3334 33.5564 83.1171 33.638 82.9525 33.801V37.7987H81.4945V34.2243C81.4945 33.779 81.2295 33.5564 80.6997 33.5564C80.4723 33.5564 80.2732 33.5878 80.1023 33.6505V37.7987H78.6444V33.0109C79.2025 32.76 79.886 32.6346 80.6949 32.6346C81.4161 32.6346 81.9522 32.804 82.3034 33.1425C82.6985 32.804 83.2566 32.6346 83.9778 32.6346C84.561 32.6346 85.0156 32.7914 85.3417 33.1049C85.649 33.3934 85.8026 33.7728 85.8026 34.2431V37.7987ZM91.3444 35.2261C91.3444 36.0272 91.139 36.6653 90.7267 37.1418C90.3144 37.6169 89.7751 37.8552 89.1088 37.8552C88.8 37.8552 88.5539 37.8301 88.372 37.7799V39.8211H86.9141V33.0109C87.4157 32.76 88.0616 32.6346 88.8517 32.6346C89.6231 32.6346 90.2282 32.8541 90.6672 33.2915C91.1187 33.7493 91.3444 34.3936 91.3444 35.2261ZM89.8849 35.2449C89.8849 34.0816 89.5306 33.5 88.822 33.5C88.6527 33.5 88.5022 33.5251 88.3705 33.5753V36.9239C88.4834 36.9678 88.6119 36.9898 88.7562 36.9898C89.5087 36.9898 89.8849 36.4081 89.8849 35.2449ZM96.5241 35.3499L93.4859 35.7826C93.5862 36.5241 93.9938 36.8957 94.7087 36.8957C95.2355 36.8957 95.6744 36.8016 96.0256 36.6135L96.3548 37.526C95.8657 37.7705 95.2606 37.8928 94.5394 37.8928C93.7681 37.8928 93.1676 37.6561 92.7381 37.1826C92.3085 36.7091 92.0938 36.0648 92.0938 35.2496C92.0938 34.4469 92.2944 33.8104 92.6957 33.3401C93.0971 32.8698 93.6583 32.6346 94.3795 32.6346C95.1069 32.6346 95.654 32.8698 96.0209 33.3416C96.3878 33.8136 96.5555 34.483 96.5241 35.3499ZM95.1637 34.798C95.1637 33.9326 94.8846 33.5 94.3265 33.5C94.0192 33.5 93.7841 33.6285 93.6211 33.8856C93.4455 34.1615 93.3702 34.5535 93.3953 35.0614L95.1637 34.798ZM101.718 37.7987H100.1L99.2819 36.1714L98.4542 37.7987H96.9679L98.5576 35.1837L97.1279 32.7287H98.6705L99.4042 34.1961H99.423L100.204 32.7287H101.568L100.11 35.0803L101.718 37.7987Z" fill="#0F93D3"/>
</g>
</svg>
